<svg width="22" height="23" viewBox="0 0 22 23" fill="none" xmlns="http://www.w3.org/2000/svg">
<path d="M19.3625 11.5974C19.3625 10.6459 20.8076 10.6459 20.8076 11.5974V17.8224C20.8076 20.321 18.7656 22.3629 16.2671 22.3629H4.54046C2.04184 22.3629 0 20.3209 0 17.8224V6.09574C0 3.59712 2.04197 1.55528 4.54046 1.55528H10.8017C11.7532 1.55528 11.7532 3.00038 10.8017 3.00038H4.54046C2.83927 3.00038 1.44494 4.39487 1.44494 6.09591V17.8226C1.44494 19.5238 2.83943 20.9181 4.54046 20.9181H16.2671C17.9683 20.9181 19.3626 19.5236 19.3626 17.8226L19.3625 11.5974ZM10.1768 6.99096C9.2253 6.99096 9.2253 5.54586 10.1768 5.54586H15.009V0.713647C15.009 -0.237882 16.4541 -0.237882 16.4541 0.713647V5.54586H21.2864C22.2379 5.54586 22.2379 6.99096 21.2864 6.99096H16.4541V11.8232C16.4541 12.7747 15.009 12.7747 15.009 11.8232V6.99096H10.1768Z" fill="black"/>
</svg>
