<svg id="Layer_1" data-name="Layer 1" xmlns="http://www.w3.org/2000/svg" viewBox="0 0 90 72"><path d="M6.7,27H59.9a11.2,11.2,0,0,0,22,0H93.3a1.51,1.51,0,1,0,0-3H82a11.17,11.17,0,0,0-22.2,0H6.7a1.51,1.51,0,1,0,0,3Zm64.2-9.8A7.8,7.8,0,1,1,63.1,25,7.81,7.81,0,0,1,70.9,17.2Z" transform="translate(-5 -14.1)"/><path d="M93.3,49H47.8a10.91,10.91,0,0,0-11.1-9.9A10.91,10.91,0,0,0,25.6,49H6.7a1.51,1.51,0,1,0,0,3h19a11.2,11.2,0,0,0,22,0H93.3a1.51,1.51,0,1,0,0-3ZM36.7,57.8A7.8,7.8,0,1,1,44.5,50,7.81,7.81,0,0,1,36.7,57.8Z" transform="translate(-5 -14.1)"/><path d="M93.3,74H70.6a11.17,11.17,0,0,0-22.2,0H6.7a1.51,1.51,0,1,0,0,3H48.5c1,6,5.5,9.1,11,9.1s10-3.1,11-9.1H93.3a1.51,1.51,0,1,0,0-3ZM59.5,82.9a7.8,7.8,0,1,1,7.8-7.8A7.81,7.81,0,0,1,59.5,82.9Z" transform="translate(-5 -14.1)"/></svg>