<svg width="29" height="29" viewBox="0 0 29 29" fill="none" xmlns="http://www.w3.org/2000/svg">
<rect x="0.15625" width="28.75" height="28.75" rx="14.375" fill="currentColor"/>
<path d="M10.8389 20.375H18.2236C18.3677 20.374 18.5114 20.3594 18.6527 20.3316C18.6929 20.3242 18.7307 20.3123 18.77 20.3026C18.8695 20.2783 18.9673 20.2475 19.0627 20.2103C19.1023 20.1946 19.1412 20.1779 19.1799 20.16V20.1599C19.2708 20.118 19.3588 20.0703 19.4434 20.0169C19.4776 19.9952 19.5123 19.9754 19.5454 19.9523V19.9522C19.6294 19.892 19.709 19.8262 19.784 19.7551C19.8112 19.7298 19.8413 19.709 19.8671 19.6813V19.6814C19.9544 19.5918 20.0342 19.4954 20.1057 19.3929C20.1649 19.3053 20.2181 19.2138 20.2649 19.1191C20.2751 19.0993 20.2871 19.0808 20.2968 19.0605C20.344 18.9602 20.3838 18.8565 20.4159 18.7503C20.4196 18.7388 20.4255 18.7282 20.4287 18.7161C20.4287 18.7115 20.4287 18.7068 20.431 18.7018L20.4311 18.7019C20.4943 18.4962 20.528 18.2825 20.5312 18.0673V10.6827C20.5305 10.0708 20.2872 9.48433 19.8545 9.05175C19.4219 8.61906 18.8354 8.37571 18.2236 8.375H10.8389C10.2271 8.37572 9.64058 8.61906 9.208 9.05175C8.77531 9.48433 8.53196 10.0708 8.53125 10.6827V18.0673C8.53197 18.6791 8.77531 19.2657 9.208 19.6982C9.64058 20.1309 10.2271 20.3743 10.8389 20.375L10.8389 20.375ZM10.8389 19.4519C10.4717 19.4519 10.1196 19.306 9.85982 19.0464C9.60021 18.7867 9.45433 18.4346 9.45433 18.0673V16.6767L11.859 14.4055C12.0977 14.1785 12.4097 14.0446 12.7387 14.0276C13.0676 14.0107 13.3917 14.112 13.6525 14.3132L19.4259 18.7392C19.3126 18.9445 19.1484 19.1175 18.9492 19.2413C18.9262 19.2551 18.9031 19.2672 18.8777 19.2801H18.8776C18.8039 19.3198 18.7266 19.3527 18.6469 19.3785C18.6164 19.3881 18.5864 19.3988 18.5546 19.4066C18.4465 19.435 18.3354 19.4503 18.2236 19.4518L10.8389 19.4519ZM10.8389 9.29809H18.2236C18.5908 9.29809 18.943 9.44397 19.2027 9.70358C19.4623 9.9633 19.6082 10.3154 19.6082 10.6827V17.7155L14.2137 13.5801C13.7792 13.245 13.239 13.0763 12.691 13.1046C12.1429 13.1329 11.623 13.3562 11.2253 13.7343L9.45433 15.4074V10.6826C9.45433 10.3153 9.60021 9.9632 9.85982 9.70348C10.1195 9.44386 10.4717 9.29798 10.8389 9.29798V9.29809Z" fill="currentColor"/>
<path d="M16.839 13.9135C17.3286 13.9135 17.7982 13.719 18.1443 13.3727C18.4906 13.0266 18.6851 12.557 18.6851 12.0673C18.6851 11.5777 18.4906 11.1081 18.1443 10.762C17.7982 10.4157 17.3286 10.2212 16.839 10.2212C16.3493 10.2212 15.8797 10.4157 15.5336 10.762C15.1873 11.1081 14.9928 11.5777 14.9928 12.0673C14.9928 12.557 15.1873 13.0266 15.5336 13.3727C15.8797 13.719 16.3493 13.9135 16.839 13.9135ZM16.839 11.1443C17.0837 11.1443 17.3185 11.2415 17.4917 11.4146C17.6648 11.5878 17.762 11.8226 17.762 12.0673C17.762 12.3121 17.6648 12.5469 17.4917 12.7201C17.3185 12.8932 17.0837 12.9904 16.839 12.9904C16.5942 12.9904 16.3594 12.8932 16.1862 12.7201C16.0131 12.5469 15.9159 12.3121 15.9159 12.0673C15.9159 11.8226 16.0131 11.5878 16.1862 11.4146C16.3594 11.2415 16.5942 11.1443 16.839 11.1443Z" fill="currentColor"/>
</svg>
