<svg width="20" height="21" viewBox="0 0 20 21" fill="none" xmlns="http://www.w3.org/2000/svg">
<path d="M1.24987 20.7448H6.24976V18.2449H2.49998V3.24555H6.24976V0.745605H1.24987C0.918329 0.745605 0.600509 0.877263 0.365977 1.11158C0.131657 1.34612 0 1.66392 0 1.99547V19.4947C0 19.8262 0.131657 20.1441 0.365977 20.3786C0.600514 20.6129 0.918318 20.7446 1.24987 20.7446V20.7448Z" fill="black"/>
<path d="M14.9993 5.22705L13.2305 6.99567L15.7304 9.49561H4.99988V11.9956L15.7304 11.9953L13.2305 14.4953L14.9993 16.2639L19.6334 11.6298C19.8682 11.3952 20.0001 11.0772 20.0001 10.7454C20.0001 10.4137 19.8682 10.0956 19.6334 9.86111L14.9993 5.22705Z" fill="black"/>
</svg>
