<svg width="22" height="26" viewBox="0 0 22 26" fill="none" xmlns="http://www.w3.org/2000/svg">
<path fill-rule="evenodd" clip-rule="evenodd" d="M8.81538 22.4868C9.40348 23.1419 10.1585 23.5018 10.9418 23.5018H10.943C11.7297 23.5018 12.4881 23.1419 13.0774 22.4857C13.393 22.1371 13.9311 22.1087 14.2797 22.4232C14.6293 22.7377 14.6577 23.277 14.3432 23.6255C13.4259 24.6439 12.2191 25.2047 10.943 25.2047H10.9407C9.66801 25.2036 8.46343 24.6428 7.5495 23.6244C7.23502 23.2758 7.2634 22.7366 7.61308 22.4232C7.96276 22.1076 8.5009 22.136 8.81538 22.4868ZM10.9984 0.79541C16.0449 0.79541 19.4349 4.72588 19.4349 8.39636C19.4349 10.2844 19.9152 11.0848 20.4249 11.934C20.929 12.7719 21.5001 13.7233 21.5001 15.5216C21.1038 20.1162 16.3071 20.4909 10.9984 20.4909C5.68963 20.4909 0.891776 20.1162 0.500076 15.5943C0.496685 13.7233 1.06775 12.7719 1.57183 11.934L1.74979 11.6345C2.18794 10.8814 2.56183 10.0623 2.56183 8.39636C2.56183 4.72588 5.95189 0.79541 10.9984 0.79541ZM10.9984 2.49839C7.03044 2.49839 4.2648 5.60689 4.2648 8.39636C4.2648 10.7567 3.60973 11.8477 3.03071 12.8105C2.56637 13.5836 2.19966 14.1944 2.19966 15.5216C2.38926 17.6628 3.80273 18.7879 10.9984 18.7879C18.1543 18.7879 19.612 17.6129 19.8005 15.4478C19.7971 14.1944 19.4304 13.5836 18.966 12.8105C18.387 11.8477 17.7319 10.7567 17.7319 8.39636C17.7319 5.60689 14.9663 2.49839 10.9984 2.49839Z" fill="black"/>
</svg>
