<svg width="18" height="20" viewBox="0 0 18 20" fill="none" xmlns="http://www.w3.org/2000/svg">
<path d="M4.4997 9.35742H4.49066C4.13568 9.35742 3.84763 9.64503 3.84763 10.0009C3.84763 10.3566 4.13505 10.6443 4.49066 10.6443H4.5002H13.4996H13.5086C13.8636 10.6443 14.1516 10.3567 14.1516 10.0009C14.1516 9.64515 13.8642 9.35742 13.5086 9.35742H13.4991H4.4997Z" fill="white"/>
<path d="M9.64294 5.49747V5.48842C9.64294 5.13321 9.35551 4.84497 8.9999 4.84497C8.64441 4.84497 8.35687 5.13258 8.35687 5.48842V5.49797V5.49747V14.5033V14.5124C8.35687 14.8676 8.6443 15.1558 8.9999 15.1558C9.3554 15.1558 9.64294 14.8682 9.64294 14.5124V14.5028V14.5033V5.49747Z" fill="white"/>
<path d="M9 0.994141C4.03679 0.994141 0 5.03421 0 10C0 14.9658 4.03743 19.0059 9 19.0059C13.9632 19.0059 18 14.9658 18 10C18 5.03421 13.9626 0.994141 9 0.994141ZM9 2.28092C13.2686 2.28092 16.7148 5.72977 16.7148 10.0008C16.7148 14.2718 13.2689 17.7207 9 17.7207C4.73145 17.7207 1.28516 14.2725 1.28516 10.0008C1.28516 5.72945 4.73112 2.28092 9 2.28092Z" fill="white"/>
</svg>
