<svg width="21" height="22" viewBox="0 0 21 22" fill="none" xmlns="http://www.w3.org/2000/svg">
<path d="M12.2534 21.745H8.71356C8.08966 21.745 7.49116 21.4971 7.04998 21.056C6.6088 20.6148 6.36093 20.0163 6.36093 19.3924C6.36314 19.2676 6.33166 19.1445 6.26983 19.0361C6.2078 18.9279 6.11781 18.8383 6.00922 18.7768C5.79353 18.6439 5.52135 18.6439 5.30561 18.7768C4.76507 19.0952 4.11907 19.1824 3.5136 19.0186C2.91232 18.8522 2.39957 18.4579 2.08452 17.9193L0.314604 14.8521C0.00338759 14.3125 -0.0810847 13.6716 0.0797651 13.0698C0.240436 12.468 0.633364 11.9545 1.17207 11.642C1.28269 11.582 1.37507 11.4931 1.43894 11.3845C1.5028 11.2761 1.53611 11.1523 1.53482 11.0264C1.5363 10.9033 1.50446 10.782 1.44244 10.6754C1.38042 10.569 1.29078 10.4812 1.18312 10.4218C0.64168 10.1089 0.24634 9.59437 0.0834639 8.9905C-0.0792281 8.38687 0.00377347 7.74323 0.314618 7.20071L2.08453 4.13344C2.39961 3.59492 2.91234 3.20052 3.51362 3.03416C4.123 2.88582 4.76621 2.99312 5.2946 3.33102C5.43944 3.42359 5.61299 3.46077 5.78304 3.43574C5.95328 3.4109 6.10861 3.32531 6.22088 3.19501C6.33314 3.06471 6.39443 2.89834 6.39388 2.72626C6.39093 2.10053 6.63755 1.49925 7.07907 1.05571C7.52059 0.612167 8.12073 0.362793 8.74651 0.362793H12.2864C12.9105 0.362793 13.5088 0.610513 13.95 1.05185C14.3911 1.493 14.639 2.09129 14.639 2.71542C14.6368 2.8402 14.6683 2.96314 14.7301 3.07154C14.7921 3.17995 14.8821 3.26957 14.9909 3.33104C15.2066 3.46392 15.4788 3.46392 15.6945 3.33104C16.2349 3.01247 16.8809 2.92523 17.4863 3.08921C18.0876 3.25558 18.6004 3.64997 18.9154 4.18849L20.6853 7.25576L20.6855 7.25558C20.9966 7.79518 21.081 8.43622 20.9204 9.03802C20.7595 9.63968 20.3668 10.1531 19.8279 10.4658C19.7172 10.5256 19.6249 10.6147 19.561 10.7231C19.4971 10.8317 19.464 10.9556 19.4651 11.0815C19.4636 11.2046 19.4957 11.3259 19.5575 11.4322C19.6195 11.5388 19.7092 11.6264 19.817 11.686C20.3583 11.9989 20.7536 12.5135 20.9165 13.1171C21.0792 13.721 20.9962 14.3646 20.6855 14.9071L18.9156 17.9744L18.9154 17.9742C18.6003 18.5127 18.0876 18.9071 17.4863 19.0737C16.8845 19.2382 16.2416 19.1508 15.7053 18.8318C15.5605 18.7393 15.3871 18.7019 15.2169 18.7269C15.0466 18.752 14.8913 18.8374 14.7791 18.9677C14.667 19.098 14.6055 19.2645 14.6061 19.4364C14.5945 20.0528 14.3416 20.6399 13.9017 21.0716C13.4617 21.5034 12.8698 21.7452 12.2535 21.745L12.2534 21.745ZM5.65736 17.0288C6.07054 17.0305 6.47617 17.1404 6.83377 17.3478C7.19229 17.5523 7.49027 17.8482 7.69691 18.2056C7.90359 18.5628 8.01163 18.9686 8.00997 19.3815C8.00997 19.5692 8.08377 19.7492 8.21536 19.883C8.34695 20.0166 8.52602 20.0932 8.71355 20.0961H12.2534C12.44 20.0961 12.6189 20.0219 12.7509 19.89C12.8829 19.758 12.957 19.5791 12.957 19.3925C12.9546 18.978 13.0623 18.5704 13.2688 18.2111C13.4755 17.8519 13.7738 17.5539 14.1333 17.3478C14.4896 17.1369 14.8958 17.0256 15.3097 17.0256C15.7236 17.0256 16.1298 17.1369 16.4859 17.3478C16.6475 17.4435 16.8407 17.4706 17.0224 17.4231C17.204 17.3756 17.3594 17.2574 17.4534 17.0949L19.2784 14.0277C19.3735 13.8677 19.4004 13.6763 19.3527 13.4964C19.3052 13.3166 19.1873 13.1632 19.0255 13.0712C18.5453 12.7952 18.178 12.3582 17.9882 11.8378C17.7984 11.3173 17.7985 10.7466 17.9882 10.2261C18.178 9.70582 18.5453 9.26892 19.0255 8.99264C19.188 8.8986 19.3061 8.74345 19.3536 8.5618C19.4011 8.37997 19.3741 8.18691 19.2784 8.0253L17.4534 4.95804C17.3592 4.79626 17.2053 4.67774 17.0246 4.62823C16.8455 4.58112 16.655 4.60891 16.497 4.70516C15.7679 5.12349 14.8719 5.12331 14.1432 4.70461C13.4144 4.28592 12.9628 3.51185 12.9571 2.67151C12.9571 2.48379 12.8833 2.3038 12.7517 2.16998C12.6201 2.03637 12.441 1.9598 12.2535 1.95686H8.71362C8.527 1.95686 8.34811 2.03103 8.21614 2.16299C8.08416 2.29495 8.01001 2.47384 8.01001 2.66047C8.0124 3.07493 7.90474 3.48258 7.69824 3.84183C7.49156 4.20108 7.19322 4.49903 6.83378 4.70516C6.47748 4.91607 6.07128 5.02741 5.65737 5.02741C5.24347 5.02741 4.83729 4.91607 4.48115 4.70516C4.31956 4.60946 4.12632 4.5824 3.94466 4.62988C3.763 4.67736 3.60768 4.79552 3.51363 4.95803L1.74372 8.02529C1.64857 8.18522 1.6217 8.37663 1.66918 8.55661C1.71685 8.73642 1.83482 8.88972 1.99659 8.98174C2.47674 9.25781 2.84409 9.69473 3.03387 10.2152C3.22362 10.7357 3.22362 11.3064 3.03387 11.8269C2.84413 12.3471 2.47679 12.784 1.99659 13.0603C1.83224 13.1525 1.71169 13.3069 1.662 13.4888C1.61249 13.6706 1.63789 13.8648 1.73267 14.0277L3.50259 17.0949C3.59682 17.2567 3.75086 17.3752 3.93141 17.4247C4.11048 17.4719 4.30097 17.4441 4.45905 17.3478C4.82418 17.1397 5.237 17.0298 5.65736 17.0289V17.0288Z" fill="black"/>
<path d="M10.4833 15.1489C9.38993 15.1489 8.34144 14.7146 7.56828 13.9414C6.79513 13.1682 6.36078 12.1197 6.36078 11.0264C6.36078 9.93296 6.79512 8.88447 7.56828 8.11131C8.34145 7.33816 9.38993 6.90381 10.4833 6.90381C11.5767 6.90381 12.6252 7.33815 13.3984 8.11131C14.1715 8.88448 14.6059 9.93296 14.6059 11.0264C14.6059 12.1197 14.1715 13.1682 13.3984 13.9414C12.6252 14.7145 11.5767 15.1489 10.4833 15.1489ZM10.4833 8.55283C9.8272 8.55283 9.19817 8.81343 8.73419 9.27722C8.2704 9.74119 8.0098 10.3702 8.0098 11.0264C8.0098 11.6825 8.2704 12.3115 8.73419 12.7755C9.19816 13.2393 9.8272 13.4999 10.4833 13.4999C11.1394 13.4999 11.7685 13.2393 12.2325 12.7755C12.6962 12.3115 12.9568 11.6825 12.9568 11.0264C12.9568 10.3702 12.6962 9.7412 12.2325 9.27722C11.7685 8.81343 11.1394 8.55283 10.4833 8.55283Z" fill="black"/>
</svg>
